<?xml version="1.0" encoding="utf-8"?>
<!-- Generator: Adobe Illustrator 23.1.1, SVG Export Plug-In . SVG Version: 6.00 Build 0)  -->
<svg version="1.1" id="Layer_1" xmlns="http://www.w3.org/2000/svg" xmlns:xlink="http://www.w3.org/1999/xlink" x="0px" y="0px"
	 viewBox="0 0 586.9 317.9" style="enable-background:new 0 0 586.9 317.9;" xml:space="preserve">
<style type="text/css">
	.st0{fill:#FDFDFE;}
	.st1{fill:#030202;}
	.st2{fill:#252525;}
	.st3{fill:#020202;}
	.st4{fill:#262527;}
	.st5{fill:#FAF9FA;}
	.st6{fill:#D6D7D6;}
	.st7{fill:#F9F7F9;}
	.st8{fill:#792F75;}
	.st9{fill:#262626;}
	.st10{fill:#010102;}
	.st11{fill:#1C0E16;}
	.st12{fill:#451734;}
	.st13{fill:#3C0E32;}
	.st14{fill:#040203;}
	.st15{fill:#812F78;}
	.st16{fill:#FDFDFD;}
	.st17{fill:#952F7F;}
	.st18{fill:#262526;}
	.st19{fill:#050203;}
	.st20{fill:#FCFDFD;}
	.st21{fill:#040706;}
	.st22{fill:#6D6D6D;}
	.st23{fill:#FAF3FA;}
	.st24{fill:#FCFCFC;}
	.st25{fill:#E6E7E8;}
	.st26{fill:#C867AA;}
	.st27{fill:#FEFEFE;}
	.st28{fill:#656565;}
	.st29{fill:#3C3C3C;}
	.st30{fill:#363737;}
	.st31{fill:#393939;}
	.st32{fill:#C668A5;}
	.st33{fill:#654F5B;}
	.st34{fill:#605058;}
	.st35{fill:#BF6CA5;}
	.st36{fill:#913063;}
	.st37{fill:#C569A7;}
	.st38{fill:#FAF8F7;}
	.st39{fill:#FCFDFC;}
	.st40{fill:#ECEBEA;}
	.st41{fill:#716E6D;}
	.st42{fill:#8D8D8D;}
	.st43{fill:#848484;}
	.st44{fill:#6B6B6B;}
	.st45{fill:#616161;}
	.st46{fill:#FDFBF9;}
	.st47{fill:#B0B0B0;}
	.st48{fill:#818181;}
	.st49{fill:#ADADAD;}
	.st50{fill:#FAF1F1;}
	.st51{fill:#B7B7B7;}
	.st52{fill:#E5B7C9;}
	.st53{fill:#D0CDCF;}
	.st54{fill:#F6F6F4;}
	.st55{fill:#FDF0ED;}
	.st56{fill:#FEEEEF;}
	.st57{fill:#FEE8EF;}
	.st58{fill:#8E8E8E;}
	.st59{fill:#C1BFC2;}
</style>
<title>Asset 3</title>
<g>
	<g id="Layer_1-2">
		<polygon class="st0" points="450.7,317.9 404.3,317.9 404.3,253.8 450.7,253.8 437.2,253.8 450.7,271 		"/>
		<path class="st1" d="M559.1,187.9c9,18.5,16.7,37.5,25.5,56c1.2,2.4,2.4,4.7,2.4,7.5v8.1c-0.7,1.2-1.5,2.1-3,2
			c-8.3-4.8-16.9-8.7-24.2-15.1c1.5-2.7,4.4-3.4,6.9-4.6c4.6-2.2,4.9-2.7,2.7-7.5c-5.9-13.1-11.9-26.3-17.8-39.5
			c-6.1-13.6-12.2-27.2-18.4-40.8c-4.4-10.2-2.2-10.6-13.9-5.4c-19.7,8.8-39.5,17.4-59,26.4c-1.8,0.8-3.6,1.6-5.7,1.3
			c-4.7-3.4-14.5-3.9-17.4-9.5c0.5-1.5,5.6-3.7,7-4.1c5.2-1.7,70.3-31.6,75.9-32.1c1.7-0.7-57.4,24.9-55.7,24.1
			c4.1-3.4,53.4-25.4,58.7-26.5c8.9-3-27.5,12.2-18.8,8.6c9.1-3.9,3.4-1.3,5-2.1l8.9-4.1c1.5-2.1,3.9-2.3,6.2-2.9
			c4.3-0.5,7.1,1.2,8.9,5.3c6.7,15.2,13.7,30.3,20.6,45.4c0.4,0.7,0.8,1.4,1.2,2.1"/>
		<path class="st2" d="M358.5,258.3c-0.8,3.1,2.3,3.4,3.6,5s5,3.2,0.5,5.4c-7.4,0.9-14.9,0.3-22.3,0.4c-14.6,0.2-29.1-0.3-43.7,0.3
			c-21.1-0.6-42.2-0.1-63.3-0.3c-2.2,0-4.3,0-6.5-0.2c-23,0.3-46,0.2-69,0c-6.6,0-9.2-2.5-8.9-7.5c0-45.2,0-90.5,0-135.8
			c0-5.3,1.9-8.6,7-9.8l7,0.2c0.8,2,2.4,3.8,1.6,6.4c2.3-1.4,4.7-1.2,7.1-1.2c62.9,0,125.9,0,188.8,0c8.7,0,9.6,0.9,9.6,9.8
			c0,34.2,0,68.3-0.1,102.5c0,2.8,1.5,6.4-2.8,7.9c-1.1-1.3-1.6-3-1.4-4.6c0-33-0.3-65.9,0.1-98.8c0.2-13.8,0.8-12.7-12.5-12.7
			H165.6c-2.3,0-4.6-0.1-7,0.1c-0.6,0.2-1.1,0.4-1.6,0.8c-1.2,1.6-0.8,3.5-0.8,5.3c0,34.1,0,68.2,0,102.2c0,1.8-0.4,3.7,0.8,5.2
			c0.5,0.3,1.1,0.5,1.7,0.6c2.3,0.2,4.7,0.3,7,0.2h153.6c3-0.1,6,0,8.9,0.3c4.8,1.5,8.4,4.9,12.5,7.7"/>
		<path class="st3" d="M4.2,107.1c-4.8-3.6-5.5-7.1-2-10.2c2.1-1.6,4.9,0.6,6.9-1.3c4.4-2.2,5.6-5.9,5.5-10.6
			c-0.2-15.2-0.1-30.5-0.1-45.7c-0.2-2.1,0-4.3,0.6-6.4c0.3-0.7,0.5-1.7,1.6-1.6s1.2,1,1.5,1.8c0.4,1.8,0.5,3.6,0.4,5.4
			c0,16.7,0,33.5,0,50.2c0,2.1-0.4,4.4,1.6,5.9c2.1,0.9,4.2,0.7,6.4,0.7c32.5,0,65.1,0,97.7,0c7.9,0,7.9,0,8-8.1
			c0.1-16.1-0.2-32.2,0.1-48.3c0.1-2.4-0.2-4.9,0.6-7.3c1.6-3,4.5-4.4,7.4-5.5c1.2-0.4,2.7-1,2.9,1.2c0,21.4,0,42.7,0,64.1
			c0,1.8-0.5,3.6,0.5,5.3c0.2,0,0.3,0.1,0.5,0.1c2.1,0.8,5.4-1.4,6.4,1.8s-0.2,6.1-2.9,8.2c-1.7,1-3.6,0.5-5.4,0.5
			c-41.9,0-83.7,0-125.6,0C12.7,107.4,8.4,109.5,4.2,107.1z"/>
		<path class="st4" d="M142.8,26.2l-8.8,5c-2.3,0.8-4.6,0.6-6.9,0.6C95.1,32,63,31.7,31,31.6c-1.5,0-3,0-4.5,0
			c-5.9,0.2-6.1,0.5-6.8,6.6c0.3,18,0.1,35.9,0.1,53.8c0.2,1.7-0.3,3.4-1.3,4.7c-2.6-1.4-1.5-3.8-1.5-5.8c-0.1-17.9,0-35.8,0-53.7
			v-4.9h-0.8v25c0,9.8-0.4,19.6,0.2,29.3c0.4,6-2,8.8-7.4,10.1c-0.8-2.6,0.4-5.3-0.7-7.9c0-8.6,0-17.2,0-25.8
			c0-12.1,0.1-24.1,0-36.2c0-3,0.7-5.2,4-5.8c1.1-0.4,2.3-0.5,3.4-0.4c40.3,0,80.6,0,120.8,0c1.2-0.2,2.3,0,3.4,0.4l2.9,2.1
			C143.6,24.1,143.6,25.4,142.8,26.2z"/>
		<path class="st5" d="M423.2,64.1h7.1c1.5,2.4-3.3,6.7,2.6,7.1c4.4,4.3,4.9-1.4,7.8-3.5c0.9,1.4,1.8,2.7,2.9,3.9
			c1.9,1.7,1.9,2.8-0.6,3.9c-1.9,0.8-3.3,1.8-1.4,4c1.3,1.5,0.1,5.7,4.5,4c1-0.4,2.8-1,3.1,0.2c0.6,2.1,0.6,4.3,0.1,6.3
			c-0.5,1.9-2.2,0.2-3.3,0.1s-2.8-1-3.1,1.1s-3.4,4.4-1.3,5.7c7.5,4.7-0.3,5.8-1.3,8.6c-2.5-1.1-1.7-5.9-6.7-3.9
			c-4.8,1.9-3.7,4.5-2.3,8c-2.6,0-4.6-0.1-6.5,0c-1.6,0.1-2.3-0.9-1.6-2.1c2.5-4.8-1.7-4.8-4.2-6c-3.8-1.9-3.1,2.3-4.7,3.3
			c-0.5,0.5-0.9,1-1.2,1.5c-0.8-1.3-1.7-2.6-2.8-3.7c-2.4-2-2.7-3.5,0.5-4.9c3.5-1.5,0.6-3.5,0.3-5.3c-0.4-2.3-1.6-3.1-3.9-2.1
			c-1.7,0.7-3.6,1-3.1-1.7c0.3-1.9-1.7-5.9,1.8-5.3c4.7,0.9,5.3-1.8,6.3-4.7c1.1-3.4-3-2.7-3.8-4.6l-0.2-0.5l5-5.5
			c1.9,0.6,1.9,2.8,3.2,3.9s1.8,0.9,2.7,0C422.2,70.2,421.9,66.7,423.2,64.1z"/>
		<path class="st6" d="M520.1,60.3c-3.8-0.4-7.2-1.9-10.6-3.3c-1,0-2-0.6-2.5-1.6c-4-1.7-5.9-5.4-8.8-8.3c-1.7-2.4-3.2-4.8-3.2-7.9
			l-0.6-1.1c-1.2-9-0.7-17.6,4.9-25.2c9.6-13.7,28.5-17,42.1-7.4c11.9,8.3,16.2,23.9,10.2,37.2c-0.5,1.2-1.1,2.4-1.7,3.6
			C542.6,56.4,532.8,61.3,520.1,60.3z"/>
		<path class="st7" d="M434.5,47c0-2.9,1.6-4.2,4.4-3.8c3.1,2.5,4.4,1,4.9-2.2c2.7-1.7,5.3-3.5,6.5,1.6c0.3,1.3,1.6,1.9,3.5,1
			c3.2-1.6,4.9-0.3,4.2,3.4c-1.5,2.4-2.3,4.5,1.9,4.5c0.6-0.1,1.2,0.3,1.3,0.9c0,0.2,0,0.4,0,0.6c1.2,3.9-2.1,3.9-4.2,4.8
			c-0.6,1.4-0.6,2.9,0,4.3c0.4,0.9,1.4,1.5,0.6,2.7c-1.4,0.7-2.5,3.6-4.3,0c-0.9-1.7-4.8,0-4.6,2.1c0.2,1.8,0.3,2.7-1.9,2.8
			s-2.7-0.5-2.6-2.8c0.2-2.8-3.9-2.8-4.1-2.5c-2.4,4.4-4.1,0.3-6-0.3c-0.9-1.6,0.4-1.7,1.3-2.1s1.7-1.2,0.9-2.6
			c-0.6-1.1-0.2-2.5-2.3-2.4c-3.4,0.2-4.5-1.3-2.9-4.5C433.6,51.3,437.2,51,434.5,47z"/>
		<path class="st8" d="M5.2,108l-1-0.9"/>
		<path class="st9" d="M519,291.4c-5,2.1-10.1,4.1-15,6.3c-7.7,3.4-10.1,2.6-13.6-4.9c-0.7-1.5-1.5-3-2.2-4.4
			c-2-6.4-5.7-12.1-8.5-18.1c-4.4-9.5-8.4-19.1-12.6-28.7c-7.6-14.9-5.2-9.9-7.6-14.9c-5.6-11.6-10.8-23.4-16-35.2
			c-0.4-0.9-0.7-1.8-1.1-2.7c-0.5-1.9-1.8-3.5-2.5-5.4c-1.8-4.2-4.7-8.1-3.8-13c0.5-2.7,1-5.8,5.2-4.4c4.8,2.9,9.5,5.5,13,10
			c-0.6,3.1-3.4,3-5.6,3.9c1.7,3.1,3.3,6.4,4.8,9.8c12.3,27,24.3,54.1,36.4,81.2c1.6,3.6,3.6,4,7,2.4c19.2-8.7,38.4-17.4,57.6-25.9
			c1.7-0.8,3.4-2.3,5.5-0.8c8.5,4.1,16.1,9.9,24,15c-11.2,6-23.2,10.4-34.6,15.9"/>
		<path class="st10" d="M296.7,268.6c0,4,0.2,8,0,11.9c-0.1,3,0.9,4.1,3.9,4c6-0.2,12,0.2,17.9-0.1c5.2-0.2,9.5,1,12.8,5.1l0.1,4.8
			c-37.7,0.1-75.4,0.1-113.1,0.2c-8.8,0-17.6-0.2-26.4-0.3c-0.7-0.5-0.9-1.5-0.4-2.2c0.1-0.1,0.2-0.3,0.4-0.4
			c1.9-5.3,5.7-7.3,11.1-7.2c6.3,0.1,12.6-0.2,18.9,0.1c4.1,0.2,5.2-1.3,4.9-5.1s-0.2-7.9-0.3-11.9c21.9,0,43.7,0,65.6,0
			C293.6,267.5,295.4,267,296.7,268.6z"/>
		<path class="st11" d="M114,296.3c-1-3.5,0.5-4.9,4-4.9c9.6,0,19.2-0.1,28.9-0.1c5.8,0,11.6-0.6,17.4-0.2c3.2,0.2,4.1,1.3,3.6,4.2
			c-1.9,0.7-2.5,2.3-3.1,4c-0.5,0.5-1.3,0.6-1.9,0.3c-0.9-1.2-0.3-2.7-0.8-4c-3.7-3.8-8.1-1.7-12.2-1.3c-2.8,1.1-3.6,3.5-4.3,6
			c-0.4,0.6-0.8,1.1-1.6,0.9c-2-3.7-4.1-3.6-6.2,0c-2.7-0.1-1.6-2.8-2.7-4c-0.5-0.9-1.3-1.7-2.2-2.2c-4.7-1.6-9.4-2.5-13.9,0.8
			c-1,0.8-1,2.7-2.9,2.4C115.7,297.3,115,296.6,114,296.3z"/>
		<path class="st12" d="M136,296.3c1.8,1.2,0,3.7,1.8,4.9c-3.6,8.2-12.9,11.2-19.4,5.6c-1.9-1.6-1.6-5.7-2.3-8.6l1.6-2.9l0.6,0.3
			c1.3,2.2,0.8,4.9,2.3,7c0.6,0.9,1.4,1.7,2.3,2.3c7.2,2.3,9.8,1,11.8-6.1C134.9,297.9,135.1,296.9,136,296.3z"/>
		<path class="st13" d="M144,301.3l1-1.1c1.2,0,1.7,0.9,2.2,1.7c2.6,4,6.2,4.9,10.5,3.4c1.8-0.5,3.3-2,3.8-3.9
			c0.3-0.8,0.5-1.7,1.5-2l1.7,0.1c-0.6,2.3-0.4,5.5-1.8,6.8c-1.9,1.7-5.1,2.3-7.8,2.7C149.9,309.6,146.6,307.2,144,301.3z"/>
		<path class="st14" d="M160.8,121.2c-2-1.2-5-2.7-5-5.4c56.9,0,120.7,0.2,177.6,0.2c11.6,0,23.3,0,34.9-0.1c6,1.7,6.3,2.1,6.6,8.4
			c1.2,26.2,1.6,52.4,0.7,78.5c-0.7,18.9-0.2,37.8-0.7,56.6c0.1,1,0,2-0.5,2.9c-2.1,4.5-6.9,7.1-11.8,6.2"/>
		<path class="st14" d="M348.9,255.5c-6.1-4.6-12.3-9.2-18.4-13.8c1.3-1.6,3.2-1.7,5-1.7c8.9-0.1,17.8-0.1,26.8,0
			c1.8,0,3.6,0.2,5.1,1.6c1.8-1.1,1.1-3,1.1-4.5c0-36.3,0-72.7,0.1-109c0-4.3-1.4-5.2-5.4-5.2c-65.7,0.1-131.4,0.7-197.5,0.7"/>
		<path class="st15" d="M375.5,125.9c0,13,0,26,0,39c0.1,0.7,0.2-0.2,0.1,0.5"/>
		<path class="st16" d="M560,246.6L507,270c-3.8,1.5-7.6,3.2-11.3,5.1c-3.6,2.1-5,1-6.5-2.5c-11.2-25.2-22.5-50.4-33.8-75.5
			c-1.1-2.4-2-4.8-3-7.2c1.7-2.3,4.3-3,6.7-4c23.7-10.2,47.1-21.2,70.8-31.4c1.3-0.6,2.7-1.4,4.2-0.8c10.6,23.3,21.2,46.6,31.8,69.9
			c2.1,4.6,4,9.4,6.3,13.9c1.2,2.3,0.6,3.1-1.5,4C567.1,243.1,563.6,244.9,560,246.6z"/>
		<path class="st17" d="M534.2,153.7c-23.7,10.7-47.4,21.4-71.2,31.9c-3.5,1.5-6.6,3.9-10.5,4.3c-0.5-0.9-1-1.7-1.4-2.6
			c-3.4-7.3-3.4-7.3,3.2-11.4c14.9-6.5,29.7-13,44.6-19.5c9.1-4,18.2-8,27.2-12.3c3.1-1.5,4.4-0.8,5.2,2.2
			C532,148.9,533.9,150.9,534.2,153.7z"/>
		<path class="st18" d="M84.2,241.8c-1.1,1.1-2.4,0.8-3.8,0.8c-12.3,0-24.5,0-36.8,0c-7.1,0-9.5-2.5-9.5-9.6
			C34,220.2,34,207.4,34,194.7c0-13.1,0.1-26.2,0.2-39.3c0-5.6,2.3-7.9,8-8.5c1.7,3.6,5.2,6.2,5.5,10.5c-0.7,0.4-1.5,0.6-2.3,0.7
			c-5.9,0.6-5.9,0.6-5.7,6.7c0.2,17.6,0,35.1,0.1,52.6c0,7.4,0.2,7.4,7.5,7.6c12.1,0.2,24.2-0.6,36.3,0.5c1.2,0.6,2.7,1.2,0.7,2.7
			c-1.2,0.6-2.5,0.9-3.8,0.8c-2.5,0-2.7,1.2-1.9,3.2C79.8,235.6,81.7,238.9,84.2,241.8z"/>
		<path class="st19" d="M84.2,241.8c-3.3,0.1-3.9-2.6-4.9-4.8c-1.3-2.8-2.5-5.7-3.8-8.7c3.1-1.9,6.8,0.7,9.4-1.8
			c-1.4-1.4-1.6-3.3-1.6-5.1c-0.1-19.1,0-38.1,0.1-57.2c-0.2-5.5-0.6-6-6-6c-7.8,0-15.6,0-23.4,0c-2.1,0-4.4,0.5-6-1.6
			c-4.2-1.9-5.3-5.6-5.9-9.7c12.9,0,25.8-0.2,38.7-0.1c5.3,0,7.8,2.8,7.9,8.1c0.1,10.6,0.2,21.2,0.2,31.8l-0.3,49.7
			C87.5,238.5,87.1,241.1,84.2,241.8z"/>
		<path class="st20" d="M367.3,241.5l-36.8,0.2c-20.3-0.1-40.6-0.1-60.8-0.1c-35.9,0-71.8,0-107.7,0c-1.8,0-3.6-0.2-5.4-0.4
			c-1.1-2-0.7-4.2-0.7-6.4c0-29.9,0-59.8,0-89.6c0-8.6,0.3-8.9,8.9-8.9c57.5,0,115,0,172.5,0c7.3,0,14.6,0,21.9,0
			c2.1,0,4.3-0.1,6.4,0.6c0.6,0.3,1.2,0.7,1.6,1.1L367.3,241.5L367.3,241.5z"/>
		<path class="st17" d="M366.4,137.7c-39.6,0-79.1,0.1-118.7,0.1c-28.6,0-57.2,0.1-85.8-0.1c-4.1,0-5.3,1.1-5.2,5.2
			c0.2,31.1,0.1,62.1,0.1,93.2c0,1.6-0.2,3.3-0.2,4.9c-0.1,0.1-0.3,0.2-0.5,0.2c-1.1-1.1-0.6-2.5-0.6-3.8c0-36.6,0-73.2,0-109.8
			c0-1.3-0.4-2.7,0.6-3.8c0.3,0,0.6,0,0.9,0.1c1.1,2,0.1,4.2,0.6,6.3c-0.1-6-0.1-6,5.6-6h198c6.6,0,5.8-0.5,5.8,6
			C366.8,132.8,367.5,135.4,366.4,137.7z"/>
		<path class="st17" d="M366.4,137.7c0.1-12.8,0.1-12.8-12.5-12.8H165.3c-8.6,0-7.4-0.6-7.4,7.5c0.1,0.9-0.3,1.8-1,2.4v-10.7
			c5.8-1.1,11.6-0.3,17.4-0.3c62.6,0,125.3,0,187.9-0.1c4.3,0,6.1,0.8,5.4,5.3c-0.3,3-0.3,6-0.3,8.9
			C367,137.9,366.7,137.8,366.4,137.7z"/>
		<path class="st21" d="M155.9,124c0,39.1,0,78.3,0.1,117.4c-1.9-1.1-1.1-3-1.1-4.5c0-36.1,0-72.2,0-108.3
			C154.9,127,154.3,125.2,155.9,124z"/>
		<path class="st22" d="M351.6,254.4c0.3-2.9,1.8-5.1,4.8-5.3c2.1-0.2,4.3,0.6,5,3.1c0.8,2.9-0.1,5.2-2.9,6.6
			C355.1,259,352.9,257.3,351.6,254.4z"/>
		<path class="st23" d="M93.8,268.5c0.6-0.8,1.2-1.5,1.9-2.2c4-3.8,8.5-7.3,4.8-13.9c-0.7-1.2,0.1-3.2,0.2-4.8
			c5.1-13.6,17.2-15.6,28-4.8l0,0c1.3,3.7,2.6,7.4,2.1,11.4c-4.7,11.1-11.3,14.2-22.2,10.2c-1.9-0.7-2.7-0.1-3.8,1
			c-2.3,2.3-4.7,4.6-7.1,6.9c-2.8,1-3.8-0.3-3.9-2.9L93.8,268.5z"/>
		<path class="st24" d="M18.5,96.8C17.3,86.9,18.1,76.9,18,67c-0.1-9.6,0.1-19.2,0.2-28.8c1.4-1.2,3.2-1.8,5.1-1.6
			c34.5,0.5,68.9-0.4,103.4-0.1c2.4,0,5-0.3,7.1,1.6c0.1,18.4,0.1,36.8,0.2,55.3c0,2.8-1,3.6-3.5,3.2c-0.2,0-0.3,0-0.5,0
			c-21.2,0.2-42.5,0.8-63.7,0.4C50.3,96.7,34.4,96.7,18.5,96.8z"/>
		<path class="st17" d="M133.7,38.2H18.2c-0.1-0.3-0.2-0.7-0.2-1c-0.3-7-0.3-7,6.6-7c34.8,0,69.7,0,104.5,0c1.7,0,3.7-1,5,1
			L133.7,38.2z"/>
		<path class="st25" d="M78.2,26.2c0,1.1-1,2-2.1,2c-0.1,0-0.2,0-0.2,0c-1.7,0-2.4-1.1-2.2-2.6c0-1.2,1-2.1,2.2-2.1H76
			C77.6,23.6,78.2,24.7,78.2,26.2z"/>
		<path class="st26" d="M427,97.1c-5.6,0.2-10.4-4.1-10.6-9.8c-0.2-5.6,4.1-10.4,9.8-10.6c0.2,0,0.4,0,0.6,0
			c5.6-0.2,10.4,4.1,10.6,9.8c0.2,5.6-4.1,10.4-9.8,10.6C427.4,97.1,427.2,97.1,427,97.1z"/>
		<path class="st27" d="M550,30.8c1.1,13.1-12.9,25.7-25.9,25.6c-13.7-0.1-26.8-12.8-26.1-26.7c0.7-14.8,11.2-25.2,26.5-25.5
			C537.1,3.9,551.4,16.4,550,30.8z"/>
		<path class="st26" d="M446.5,48.2c3.6,0.1,6.6,3,6.8,6.6c0,3.7-2.9,6.6-6.6,6.7l0,0c-3.5,0.1-6.5-2.7-6.6-6.2c0-0.1,0-0.2,0-0.3
			C439.9,51.4,442.8,48.3,446.5,48.2C446.4,48.2,446.4,48.2,446.5,48.2z"/>
		<path class="st28" d="M544.1,271.3c0.2,2-1.6,3.7-4.4,3.7s-5.4-1.5-5.3-4.7c0.1-2.7,1.8-5,5.1-4.9
			C542.6,265.6,544,267.3,544.1,271.3z"/>
		<path class="st29" d="M443.5,300.3h-31.6v-0.6h31.6V300.3z"/>
		<path class="st30" d="M443.5,294.3h-31.7v-0.5h31.5L443.5,294.3z"/>
		<path class="st31" d="M411.6,305.6h31.8v0.5h-31.8V305.6z"/>
		<path class="st32" d="M158.9,306.3c-8,2.1-10.3,1.1-13.8-6.1c-0.2-3.1,0.6-5.5,3.8-6.6C154.5,295.5,159.2,301.5,158.9,306.3z"/>
		<path class="st26" d="M136,296.3c0.4,4.1,0,8.3-4.2,10.2c-3.1,1.4-6.9,2.1-9.9-1.1c1.2-3.9,4.1-6.7,6.6-9.8
			c1.2-1.7,3.5-2.3,5.4-1.3L136,296.3z"/>
		<path class="st33" d="M158.9,306.3c-1.8-5.5-6-9.1-10.1-12.8c6.4-2.4,12.1-1.7,15,1.9c-2.8,0.9-2.8,0.9-7.1,0.3
			c2,2.5,4.4,4.2,6,6.5C161.9,303.9,160.6,305.4,158.9,306.3z"/>
		<path class="st34" d="M133.9,294.3c-3.1-0.2-4.4,2.2-6.1,4.1c-2.1,2.2-3.1,5.4-5.8,7c-1.2,0-2.1-0.9-2.2-2.1l0,0
			c-0.2-3.1,2.9-4.1,4.2-6.8c-2-0.3-4.3,0.6-5.9-1.1l-0.5-0.1C122.8,290.8,128.3,292.1,133.9,294.3z"/>
		<path class="st35" d="M162.7,302.1c-4.1-0.9-5.4-4.8-9-7.2c4.1-1.1,7,0.4,10,0.4c0.6,1.4-0.3,2.6-0.6,3.9
			C163,300.2,162.8,301.2,162.7,302.1z"/>
		<path class="st36" d="M136.7,294c2.5-0.8,5.2-0.9,7.8-0.3C142,296.1,139.9,295.7,136.7,294z"/>
		<path class="st37" d="M118.1,295.4l8.6-0.6c-1.3,3.9-5.1,5.4-6.9,8.5C117.7,301,117.6,298.3,118.1,295.4z"/>
		<path class="st17" d="M468.6,204.3c-1.6,0.2-2.1-0.9-2.5-2c-0.7-1.9,0.7-2.2,1.9-2.7c8.5-3.8,16.9-7.6,25.4-11.4
			c11.5-5.1,23-10.3,34.5-15.4c0.9-0.4,1.8-0.8,2.8-1.1c1.5-0.6,3.1-1.5,4,0.9c0.8,2.2-0.8,2.5-2.2,3.1
			c-12.1,5.3-24.3,10.7-36.4,16.1c-8.2,3.6-16.3,7.4-24.4,11.1L468.6,204.3z"/>
		<path class="st17" d="M553.5,226.1c0.2,1.6-1.3,1.8-2.2,2.2c-6.5,3-13,5.8-19.5,8.8c-3.6,1.6-4.1-1.1-5.2-3.3s-1.8-4.1,1.3-5.5
			c6.4-2.8,12.7-5.8,19-8.5C549.5,218.7,553.5,222.6,553.5,226.1z"/>
		<path class="st17" d="M519,241.1c0.3,1.5-0.7,2-1.8,2.5c-6.7,2.9-13.4,5.7-19.9,8.9c-4.1,2-3.9-1.5-4.9-3.3
			c-1.2-2.1-2.3-4.1,1.1-5.5c5.8-2.3,11.5-5,17.3-7.6C515.5,234,518.8,236,519,241.1z"/>
		<path class="st17" d="M538.7,181.2c0.1,1.6-1.2,1.8-2.2,2.3c-11.4,5.2-22.9,10.3-34.4,15.5c-1.4,0.6-2.4,0.8-3.3-0.8
			c-1-1.9-0.2-2.8,1.4-3.4c11.6-5.2,23.3-10.3,34.9-15.5C537.4,178.2,538,179.6,538.7,181.2z"/>
		<path class="st38" d="M483.1,171c0.1,1.9-1.3,2.4-2.5,2.9c-6.8,3-13.6,5.9-20.4,9c-1.6,0.7-2.7,0.9-3.5-1s0.2-2.9,1.6-3.5
			c6.9-3.1,13.9-6.1,20.8-9.1C481.2,168.3,482.7,168.8,483.1,171z"/>
		<path class="st39" d="M84.9,163.8c0,20.9,0,41.8,0.1,62.7c-14.6,0.1-29.1,0-43.7,0.2c-2.7,0-3.3-0.8-3.2-3.3
			c0.1-19.9,0.2-39.7,0.2-59.5c1.6-1.6,3.6-1.5,5.5-1.5c11.9,0,23.7,0,35.6,0C81.3,162.4,83.3,162.2,84.9,163.8z"/>
		<path class="st17" d="M84.9,163.8H38.2c-0.3-7.1-0.3-7.1,6.9-7c1,0,2-0.1,3-0.2l30.1,0.1C85.1,156.8,85.1,156.8,84.9,163.8z"/>
		<path class="st40" d="M61.5,232.2c1.2-0.1,2.3,0.8,2.4,2c0,0.1,0,0.3,0,0.4c0,1.2-0.9,2.2-2,2.2h-0.1c-1.2,0.3-2.4-0.5-2.7-1.7
			c0-0.1,0-0.3,0-0.4C59,233.2,60,232.4,61.5,232.2z"/>
		<path class="st41" d="M69.2,152.4h-14v-1h14V152.4z"/>
		<path class="st17" d="M216.7,191.7c0,10.3-0.1,20.6,0.1,30.9c0.1,3.2-1,4.3-4.2,4.3c-14.3-0.1-28.6-0.1-42.9,0
			c-3.2,0-3.9-1.2-3.9-4.1c0.1-21.1,0.1-42.2,0-63.2c0-3.1,0.9-4,3.9-3.9c14.3,0.1,28.6,0.1,42.9,0c3.3,0,4.3,1,4.2,4.2
			C216.6,170.4,216.8,181.1,216.7,191.7L216.7,191.7z"/>
		<path class="st17" d="M262.8,226.9c-5.8,0-11.6-0.2-17.4,0.1c-3,0.2-3.9-0.9-3.7-3.6c0.1-1.5,0.1-3,0-4.5
			c-0.2-2.3,0.7-3.3,3.1-3.3c12.3,0.1,24.5,0,36.8,0.1c5,0,2.8,3.9,3.1,6.3s0.5,5.1-3.5,4.9C275.1,226.6,268.9,226.8,262.8,226.9
			L262.8,226.9z"/>
		<path class="st17" d="M322,215.6c5.8,0,11.6,0.2,17.5-0.1c4.1-0.2,4.3,2.1,3.9,5c-0.3,2.5,1.7,6.4-3.6,6.3
			c-12-0.1-23.9-0.1-35.9,0c-2.6,0-3.4-1-3.5-3.5c-0.3-7.7-0.4-7.7,7.2-7.7H322z"/>
		<path class="st17" d="M349.4,159.7H235.7c-1.4-3.4-0.1-4.4,3.3-4.4c36,0.1,71.9,0.1,107.9,0.1
			C351.5,155.3,351.5,155.4,349.4,159.7z"/>
		<path class="st17" d="M317,170.5c-9.8,0-19.6,0-29.4,0c-1.7,0-3.9,0.7-4-2.3c-0.2-3.3,2.2-2.6,4.1-2.7c19.8-1.1,39.5-0.2,59.3-0.5
			c2,0,4.2-0.3,4.2,2.8s-2.3,2.8-4.2,2.8C336.9,170.6,327,170.6,317,170.5z"/>
		<path class="st42" d="M349.9,180.3H234.2v-0.7h115.6L349.9,180.3z"/>
		<path class="st43" d="M349.7,202H234.2v-0.8h115.5V202z"/>
		<path class="st17" d="M349.4,159.7c0.8-2.4,1-3.9-2.5-3.9c-35.9,0.1-71.8,0.1-107.7,0c-3,0-3.8,1.2-3.5,3.9
			c-2-4.4-1.8-4.9,3.1-4.9c27.2,0,54.5,0,81.8,0H348c1.3,0,2.9-0.2,3.1,1.6C351.2,157.7,351.9,159.5,349.4,159.7z"/>
		<path class="st44" d="M349.5,187.5h-115V187h115.2L349.5,187.5z"/>
		<path class="st45" d="M349.7,194.5H234.3V194h115.2L349.7,194.5z"/>
		<path class="st46" d="M203.5,127.9c9.6,0,19.3,0,28.9,0c1.9,0,4.2-0.6,4.2,2.6c0,3.3-1.9,3.3-4.3,3.3c-19.6,0-39.2,0-58.8,0
			c-2.2,0-3.9-0.1-3.9-3.1s1.9-2.9,4-2.9L203.5,127.9z"/>
		<path class="st26" d="M103.6,250.9c0-6.6,5.4-12,12-12c6.6,0.1,12,5.4,12.2,12c-0.1,6.8-5.6,12.3-12.4,12.3
			C108.7,263,103.5,257.6,103.6,250.9z"/>
		<path class="st17" d="M50.1,88h-26c-1.1-6.4-0.3-12.8-0.4-19.2c0-0.7,0.6-1.2,1.2-1.5c8-1.1,16.2-1.1,24.3-0.1
			c0.8,0.3,1.3,1.1,1.3,1.9C50.3,75.5,51.1,81.8,50.1,88z"/>
		<path class="st17" d="M50.1,88c0-5.1,0-10.2,0-15.3c0-1.6,0.5-3.3-1-4.6c-7.9-1.6-16-1.6-23.9,0c-2.3,6.6-0.4,13.4-1,20
			c-1.5-0.8-1.1-2.3-1.1-3.5c0-10.8,0-21.5-0.1-32.3c0-2.8,0.6-4.2,3.8-4.2c7,0.2,13.9,0.1,20.9,0.1c1.7,0,3.3,0,3.3,2.5
			c0,12,0,24.1-0.1,36.2C50.9,87.3,50.3,87.6,50.1,88z"/>
		<path class="st17" d="M108.9,82c2.8,0,5.6,0.1,8.4,0c2.1-0.1,3.4,0.4,3.4,2.9s-1.2,3.4-3.6,3.3c-5.6-0.1-11.2-0.1-16.8-0.1
			c-2.1,0-3.4-0.4-3.4-2.9c-0.1-2.8,1.2-3.3,3.6-3.2C103.3,82.1,106.1,82,108.9,82z"/>
		<path class="st17" d="M77,88.2c-3,0-6-0.1-9,0c-2.5,0.1-3.1-1.1-3.1-3.3s0.9-2.9,3-2.9c5.8,0.1,11.6,0.1,17.4,0c2.2,0,2.8,1,2.8,3
			s-0.5,3.2-2.8,3.1C82.6,88.1,79.8,88.2,77,88.2z"/>
		<path class="st17" d="M124.2,49.8H60.7v-1.2h63.5V49.8z"/>
		<path class="st17" d="M124.2,55.9H81.8v-1h42.5L124.2,55.9z"/>
		<path class="st47" d="M123.2,66.2H61.1v-0.7h62.3L123.2,66.2z"/>
		<path class="st47" d="M123.2,74.2H61.1v-0.7h62.3L123.2,74.2z"/>
		<path class="st48" d="M81.3,187.8H41.9v-0.5h39.5L81.3,187.8z"/>
		<path class="st48" d="M81.3,191.8H41.9v-0.5h39.5L81.3,191.8z"/>
		<path class="st48" d="M81.3,195.8H41.9v-0.5h39.5L81.3,195.8z"/>
		<path class="st48" d="M81.3,199.8H41.9v-0.5h39.5L81.3,199.8z"/>
		<path class="st47" d="M123.2,70.2H61.1v-0.7h62.3L123.2,70.2z"/>
		<path class="st49" d="M61.3,61.4h61.9v0.5H60.9L61.3,61.4z"/>
		<path class="st50" d="M43.6,36.1c-5,0-9.9,0-14.9,0c-1.4,0-3.3,0.5-3.4-1.7s1.7-2.1,3.1-2.1c10.1,0,20.2,0,30.3,0
			c1.4,0,3.3-0.3,3.2,2s-2,1.8-3.4,1.8C53.5,36.2,48.6,36.1,43.6,36.1z"/>
		<path class="st51" d="M523.4,27.4V15.1c2.2,4.1,1.8,8.1,1.3,12.2L523.4,27.4z"/>
		<path class="st52" d="M526.1,32.2l11.6,7.8c-0.2,0.4-0.5,0.8-0.7,1.2c-4-2.4-8.1-4.7-11.7-7.8L526.1,32.2z"/>
		<path class="st53" d="M527.6,30.3c3.6-1.6,7.2-1,10.7-0.4C534.8,31.8,531.2,31.1,527.6,30.3z"/>
		<path class="st54" d="M539.6,267.5c1.6,0.3,2.6,1.3,2.4,3c-0.1,1.5-1.4,2.6-2.8,2.5c-1.5-0.1-2.6-1.4-2.5-2.8
			c0-1.4,1.2-2.6,2.6-2.6C539.4,267.5,539.5,267.5,539.6,267.5z"/>
		<path class="st17" d="M61.2,175.8c-5.7,0-11.3,0-17,0c-1.3,0-2.9,0.3-3-1.7c-0.2-2.2,1.5-2.2,3-2.2h35c1.4,0,2.8,0,2.8,2
			s-1.4,1.9-2.8,1.9C73.1,175.9,67.1,175.9,61.2,175.8L61.2,175.8z"/>
		<path class="st17" d="M61.2,211.4c-2,0-4,0-6,0s-2.2-1.5-2.2-3.1s0.5-2.6,2.2-2.6h12.5c1.7,0,2.3,0.9,2.3,2.5s-0.4,3-2.3,3.1
			C65.5,211.5,63.4,211.4,61.2,211.4L61.2,211.4z"/>
		<path class="st17" d="M69.9,183.6c-3.2,0-6.3,0-9.4,0c-1.3,0-2.2-0.5-2.2-2s1.1-1.9,2.3-1.9h18.9c1.2,0,2.3,0.1,2.4,1.7
			c0.1,1.9-1.1,2.2-2.6,2.2H69.9z"/>
		<path class="st17" d="M61.5,218.7c-2.2,0-4.3,0-6.4,0c-1.9,0-1.9-1.4-2-2.8s0.6-2.2,2-2.2c4.3,0,8.6,0,12.9,0c1.4,0,2,0.9,2,2.3
			s-0.3,2.7-2.1,2.7C65.7,218.6,63.6,218.6,61.5,218.7L61.5,218.7z"/>
		<path class="st17" d="M71.8,159c3.3-2.4,7-0.9,10.6-1c1.5,0,1.6,1.4,1.5,2.6c-0.1,2.2-1.7,2.1-3.2,2.1H61.3
			c-5.5,0-11,0.2-16.4-0.1c-2-0.1-5.8,1.7-5.6-2.5s3.8-2,5.9-2.3s4.4-0.9,6.1,1c0.5,0.5,1,0.9,1.7,1.2c5.8,0.4,11.5,0.4,17.3,0
			C70.8,159.9,71.4,159.5,71.8,159z"/>
		<path class="st55" d="M51.1,160.7c0-0.6,0.1-1.1,0.1-1.7h20.6c0,0.6,0.1,1.1,0.1,1.7C65,161.6,58,161.7,51.1,160.7z"/>
		<path class="st56" d="M170.8,160h41v0.6H171L170.8,160z"/>
		<path class="st57" d="M211.6,166.6H171v-0.5h40.6V166.6z"/>
		<path class="st56" d="M48.4,51.6H25.8v-1h22.6V51.6z"/>
		<path class="st56" d="M48.3,54.8H25.8v-1h22.5V54.8z"/>
		<path class="st56" d="M47.8,61h-22v-0.5h22V61z"/>
		<path class="st17" d="M51.1,160.7h20.8C65.1,162.5,57.9,162.5,51.1,160.7z"/>
		<path class="st56" d="M47.8,63.9h-22v-0.5h22V63.9z"/>
		<path class="st56" d="M47.8,66.5h-22V66h22V66.5z"/>
		<path class="st56" d="M47.8,58.1h-22v-0.5h22V58.1z"/>
		
			<rect x="478.2" y="205.5" transform="matrix(0.9136 -0.4067 0.4067 0.9136 -39.6122 225.8824)" class="st58" width="66.8" height="1.2"/>
		<polyline class="st58" points="482.9,224 483.4,225.1 544.4,197.9 543.9,196.8 		"/>
		
			<rect x="482.6" y="214.7" transform="matrix(0.9136 -0.4067 0.4067 0.9136 -42.973 228.4677)" class="st58" width="66.8" height="1.2"/>
		<polygon class="st59" points="437.2,253.8 437.1,271 450.7,271 		"/>
	</g>
</g>
</svg>
