<?xml version="1.0" encoding="utf-8"?>
<!-- Generator: Adobe Illustrator 23.1.1, SVG Export Plug-In . SVG Version: 6.00 Build 0)  -->
<svg version="1.1" id="Layer_1" xmlns="http://www.w3.org/2000/svg" xmlns:xlink="http://www.w3.org/1999/xlink" x="0px" y="0px"
	 viewBox="0 0 1900.1 42.1" style="enable-background:new 0 0 1900.1 42.1;" xml:space="preserve" preserveAspectRatio="none">
<style type="text/css">
	.st0{fill:#EFEFEF;}
	.st1{fill:#005073;}
</style>
<polygon class="st0" points="679.1,4.4 678,9.2 613.5,8 591.9,7.6 548.5,7.8 464.8,6.8 444.9,7.6 375.1,6.8 356.7,7.6 180.8,6.4
	172.3,7.8 154.2,8 175.2,4.4 378.1,1.1 555.2,2.8 "/>
<polygon class="st0" points="679.1,8.4 678,13.2 613.5,12 591.9,11.6 548.5,11.8 464.8,10.8 444.9,11.6 375.1,10.8 356.7,11.6
	180.8,10.4 172.3,11.8 154.2,12 175.2,8.4 378.1,5.1 555.2,6.8 "/>
<path class="st0" d="M0,19.7c0.5-2.8,136.1-4.9,149.1-5.2c74.4-1.7,149.7-1.8,224.5-1.8c78.2,0,156.5,0.7,234.3,2.4
	c98.8,2.1,197,5.4,294.7,9c84.6,3.1,168.4,7.1,253.3,9.9c122.2,4,247.1,8.1,371,8.1c77.3,0,154.6-1,231.9-2.2
	c47,0,94.2-2.5,141.2-4.5c0-8.3-0.1-16.6-0.1-25c0,0-214.7,0-234.2,0c-78.5,0-156.9,0-235.4,0s-156.9,0-235.4,0
	c-76.9,0-153.9,0-230.9,0c-74.1,0-148.3,0-222.4,0c-70.7,0-141.4,0-212.1,0c-63.5,0-127.1,0-190.6,0c-52.7,0-105.4,0-158.1,0
	c-38.2,0-76.4,0-114.6,0c-20,0-40,0-59.9,0c-2.2,0-4.2,0-6.3,0L0,19.7L0,19.7z"/>
<path class="st1" d="M0,15.7c0.5-2.8,136.1-4.9,149.1-5.2c74.4-1.7,149.5-0.1,224.5-1.8c78.2-1.8,156.5,0.7,234.3,2.4
	c98.8,2.1,197,5.4,294.7,9c84.6,3.1,168.4,7.1,253.3,9.9c122.2,4,247.1,8.1,371,8.1c77.3,0,154.6-1,231.9-2.2
	c47,0,94.2-2.5,141.2-4.5c0-8.3-0.1-16.6-0.1-25c0,0-214.7,0-234.2,0c-78.5,0-156.9,0-235.4,0s-156.9,0-235.4,0
	c-76.9,0-153.9,0-230.9,0c-74.1,0-148.3,0-222.4,0c-70.7,0-141.4,0-212.1,0c-63.5,0-127.1,0-190.6,0c-52.7,0-105.4,0-158.1,0
	c-38.2,0-76.4,0-114.6,0c-20,0-40,0-59.9,0c-2.2,0-4.2,0-6.3,0L0,15.7L0,15.7z"/>
<path class="st0" d="M373.6,2.3c78.2,0,156.5,0.7,234.3,2.4c98.8,2.1,197,5.4,294.7,9c84.6,3.1,168.4,7.1,253.3,9.9
	c122.2,4,247.1,8.1,371,8.1c77.3,0,154.6-1,231.9-2.2c47,0,94.2-2.5,141.2-4.5c0-8.3-0.1-16.6-0.1-25c0,0-214.7,0-234.2,0
	c-78.5,0-156.9,0-235.4,0s-156.9,0-235.4,0C1118,0,1041,0,964,0c-74.1,0-148.3,0-222.4,0c-70.7,0-141.4,0-212.1,0
	C466,0,402.4,0,338.9,0c-52.7,0-105.4,0-158.1,0c-38.2,0-76.4,0-114.6,0c-20,0-40,0-59.9,0C4.1,0,2.1,0,0,0v9.3"/>
</svg>
