<?xml version="1.0" encoding="utf-8"?>
<!-- Generator: Adobe Illustrator 23.1.1, SVG Export Plug-In . SVG Version: 6.00 Build 0)  -->
<svg version="1.1" id="Layer_1" xmlns="http://www.w3.org/2000/svg" xmlns:xlink="http://www.w3.org/1999/xlink" x="0px" y="0px"
	 viewBox="0 0 1900.1 31.7" style="enable-background:new 0 0 1900.1 31.7;" xml:space="preserve">
<style type="text/css">
	.st0{opacity:0.2;fill:#323D4A;enable-background:new    ;}
</style>
<path class="st0" d="M1900,22.4c-0.5,2.8-136.1,4.9-149.1,5.2c-74.4,1.7-149.7,1.8-224.5,1.8c-78.2,0-156.5-0.7-234.3-2.4
	c-98.8-2.1-197-5.4-294.7-9c-84.6-3.1-168.4-7.1-253.3-9.9C621.9,4.1,497,0,373.1,0c-77.3,0-154.6,1-231.9,2.2
	C94.2,2.2,47,4.7,0,6.7c0,8.3,0.1,16.6,0.1,25c0,0,214.7,0,234.2,0c78.5,0,156.9,0,235.4,0s156.9,0,235.4,0c76.9,0,153.9,0,230.9,0
	c74.1,0,148.3,0,222.4,0c70.7,0,141.4,0,212.1,0c63.5,0,127.1,0,190.6,0c52.7,0,105.4,0,158.1,0c38.2,0,76.4,0,114.6,0
	c20,0,40,0,59.9,0c2.2,0,4.2,0,6.3,0V22.4z"/>
</svg>
