<?xml version="1.0" encoding="utf-8"?>
<!-- Generator: Adobe Illustrator 19.2.1, SVG Export Plug-In . SVG Version: 6.00 Build 0)  -->
<svg version="1.1" id="Layer_1" xmlns="http://www.w3.org/2000/svg" xmlns:xlink="http://www.w3.org/1999/xlink" x="0px" y="0px"
	 viewBox="0 0 1900.1 31.7" style="enable-background:new 0 0 1900.1 31.7;" xml:space="preserve" preserveAspectRatio="none">
<style type="text/css">
	.st0{fill:#fbfbfc;}
</style>
<path class="st0" d="M0,9.3c0.5-2.8,136.1-4.9,149.1-5.2c74.4-1.7,149.7-1.8,224.5-1.8c78.2,0,156.5,0.7,234.3,2.4
	c98.8,2.1,197,5.4,294.7,9c84.6,3.1,168.4,7.1,253.3,9.9c122.2,4,247.1,8.1,371,8.1c77.3,0,154.6-1,231.9-2.2
	c47,0,94.2-2.5,141.2-4.5c0-8.3-0.1-16.6-0.1-25c0,0-214.7,0-234.2,0c-78.5,0-156.9,0-235.4,0s-156.9,0-235.4,0C1118,0,1041,0,964,0
	c-74.1,0-148.3,0-222.4,0c-70.7,0-141.4,0-212.1,0c-63.5,0-127.1,0-190.6,0c-52.7,0-105.4,0-158.1,0c-38.2,0-76.4,0-114.6,0
	c-20,0-40,0-59.9,0C4.1,0,2.1,0,0,0C0,0,0,9.3,0,9.3z"/>
</svg>
